<mxfile host="app.diagrams.net" modified="2024-04-29T05:44:04.355Z" agent="Mozilla/5.0 (Windows NT 10.0; Win64; x64) AppleWebKit/537.36 (KHTML, like Gecko) Chrome/124.0.0.0 Safari/537.36" etag="o9A9XUeYSJP086UsvH3X" version="24.3.0" type="device">
  <diagram name="Page-1" id="MDfD3dL-1oj1IoBw1hPt">
    <mxGraphModel dx="646" dy="332" grid="1" gridSize="10" guides="1" tooltips="1" connect="1" arrows="1" fold="1" page="1" pageScale="1" pageWidth="827" pageHeight="1169" math="0" shadow="0">
      <root>
        <mxCell id="0" />
        <mxCell id="1" parent="0" />
        <mxCell id="rFx6AtGJzrZ7C1rpztWf-19" value="" style="edgeStyle=orthogonalEdgeStyle;rounded=0;orthogonalLoop=1;jettySize=auto;html=1;" parent="1" source="rFx6AtGJzrZ7C1rpztWf-1" target="rFx6AtGJzrZ7C1rpztWf-8" edge="1">
          <mxGeometry relative="1" as="geometry" />
        </mxCell>
        <mxCell id="rFx6AtGJzrZ7C1rpztWf-1" value="&lt;b&gt;Start&lt;/b&gt;" style="ellipse;whiteSpace=wrap;html=1;" parent="1" vertex="1">
          <mxGeometry x="317.5" y="80" width="160" height="80" as="geometry" />
        </mxCell>
        <mxCell id="A1yUc622_VBz0XWEs9Df-15" style="edgeStyle=orthogonalEdgeStyle;rounded=0;orthogonalLoop=1;jettySize=auto;html=1;exitX=0;exitY=0.5;exitDx=0;exitDy=0;" parent="1" source="rFx6AtGJzrZ7C1rpztWf-2" target="A1yUc622_VBz0XWEs9Df-3" edge="1">
          <mxGeometry relative="1" as="geometry" />
        </mxCell>
        <mxCell id="A1yUc622_VBz0XWEs9Df-17" style="edgeStyle=orthogonalEdgeStyle;rounded=0;orthogonalLoop=1;jettySize=auto;html=1;entryX=0.5;entryY=0;entryDx=0;entryDy=0;exitX=1;exitY=0.5;exitDx=0;exitDy=0;" parent="1" source="rFx6AtGJzrZ7C1rpztWf-2" target="A1yUc622_VBz0XWEs9Df-4" edge="1">
          <mxGeometry relative="1" as="geometry" />
        </mxCell>
        <mxCell id="rFx6AtGJzrZ7C1rpztWf-2" value="&lt;b&gt;Read Current Document &amp;amp;&lt;/b&gt;&lt;div&gt;&lt;b&gt;Extract Data&lt;/b&gt;&lt;/div&gt;" style="rounded=0;whiteSpace=wrap;html=1;" parent="1" vertex="1">
          <mxGeometry x="317.51" y="580" width="160" height="60" as="geometry" />
        </mxCell>
        <mxCell id="A1yUc622_VBz0XWEs9Df-9" value="" style="edgeStyle=orthogonalEdgeStyle;rounded=0;orthogonalLoop=1;jettySize=auto;html=1;" parent="1" source="rFx6AtGJzrZ7C1rpztWf-3" target="C0UGEEo54DAQuoxf1vOR-1" edge="1">
          <mxGeometry relative="1" as="geometry" />
        </mxCell>
        <mxCell id="rFx6AtGJzrZ7C1rpztWf-3" value="&lt;b&gt;Open Each Invoice and&lt;/b&gt;&lt;div&gt;&lt;b&gt;PO from folder&lt;/b&gt;&lt;/div&gt;" style="rounded=0;whiteSpace=wrap;html=1;" parent="1" vertex="1">
          <mxGeometry x="317.5" y="310" width="160" height="60" as="geometry" />
        </mxCell>
        <mxCell id="rFx6AtGJzrZ7C1rpztWf-5" value="&lt;b&gt;&lt;font style=&quot;font-size: 22px;&quot;&gt;UiPath- Document Understanding&amp;nbsp;&lt;/font&gt;&lt;/b&gt;&lt;div&gt;&lt;b&gt;&lt;font style=&quot;font-size: 22px;&quot;&gt;(Purchase Order &amp;amp; Invoice Data Extraction)&lt;/font&gt;&lt;/b&gt;&lt;/div&gt;" style="text;html=1;align=center;verticalAlign=middle;whiteSpace=wrap;rounded=0;" parent="1" vertex="1">
          <mxGeometry x="110" y="30" width="610" height="30" as="geometry" />
        </mxCell>
        <mxCell id="rFx6AtGJzrZ7C1rpztWf-20" value="" style="edgeStyle=orthogonalEdgeStyle;rounded=0;orthogonalLoop=1;jettySize=auto;html=1;" parent="1" source="rFx6AtGJzrZ7C1rpztWf-8" target="rFx6AtGJzrZ7C1rpztWf-3" edge="1">
          <mxGeometry relative="1" as="geometry" />
        </mxCell>
        <mxCell id="rFx6AtGJzrZ7C1rpztWf-8" value="&lt;b style=&quot;background-color: initial;&quot;&gt;Open Input Folder&lt;/b&gt;" style="rounded=0;whiteSpace=wrap;html=1;" parent="1" vertex="1">
          <mxGeometry x="317.5" y="200" width="160" height="60" as="geometry" />
        </mxCell>
        <mxCell id="A1yUc622_VBz0XWEs9Df-10" value="" style="edgeStyle=orthogonalEdgeStyle;rounded=0;orthogonalLoop=1;jettySize=auto;html=1;" parent="1" source="C0UGEEo54DAQuoxf1vOR-1" target="rFx6AtGJzrZ7C1rpztWf-2" edge="1">
          <mxGeometry relative="1" as="geometry" />
        </mxCell>
        <mxCell id="A1yUc622_VBz0XWEs9Df-13" value="" style="edgeStyle=orthogonalEdgeStyle;rounded=0;orthogonalLoop=1;jettySize=auto;html=1;" parent="1" source="C0UGEEo54DAQuoxf1vOR-1" target="A1yUc622_VBz0XWEs9Df-11" edge="1">
          <mxGeometry relative="1" as="geometry" />
        </mxCell>
        <mxCell id="C0UGEEo54DAQuoxf1vOR-1" value="&lt;b&gt;Is extraction&lt;/b&gt;&lt;div&gt;&lt;b&gt;completed for all Documents?&lt;/b&gt;&lt;/div&gt;" style="rhombus;whiteSpace=wrap;html=1;" parent="1" vertex="1">
          <mxGeometry x="338.13" y="400" width="118.75" height="110" as="geometry" />
        </mxCell>
        <mxCell id="A1yUc622_VBz0XWEs9Df-18" value="" style="edgeStyle=orthogonalEdgeStyle;rounded=0;orthogonalLoop=1;jettySize=auto;html=1;" parent="1" source="A1yUc622_VBz0XWEs9Df-3" target="A1yUc622_VBz0XWEs9Df-5" edge="1">
          <mxGeometry relative="1" as="geometry" />
        </mxCell>
        <mxCell id="A1yUc622_VBz0XWEs9Df-3" value="&lt;b&gt;If Doc. is Invoice, Extract:&lt;/b&gt;&lt;div&gt;&lt;b&gt;1)Invoice Number&lt;/b&gt;&lt;/div&gt;&lt;div&gt;&lt;b&gt;2)Due Date&lt;/b&gt;&lt;/div&gt;&lt;div&gt;&lt;b&gt;3)Bill To&lt;/b&gt;&lt;/div&gt;&lt;div&gt;&lt;b&gt;4)Amount Due&lt;/b&gt;&lt;/div&gt;" style="rounded=0;whiteSpace=wrap;html=1;align=left;" parent="1" vertex="1">
          <mxGeometry x="169.38" y="670" width="150" height="90" as="geometry" />
        </mxCell>
        <mxCell id="A1yUc622_VBz0XWEs9Df-19" value="" style="edgeStyle=orthogonalEdgeStyle;rounded=0;orthogonalLoop=1;jettySize=auto;html=1;" parent="1" source="A1yUc622_VBz0XWEs9Df-4" target="A1yUc622_VBz0XWEs9Df-7" edge="1">
          <mxGeometry relative="1" as="geometry" />
        </mxCell>
        <mxCell id="A1yUc622_VBz0XWEs9Df-4" value="&lt;b&gt;If Doc. is PO, Extract:&lt;/b&gt;&lt;div&gt;&lt;b&gt;1)PO Number&lt;/b&gt;&lt;/div&gt;&lt;div&gt;&lt;b&gt;2)PO Date&lt;/b&gt;&lt;/div&gt;&lt;div&gt;&lt;b&gt;3)Customer Name&lt;/b&gt;&lt;/div&gt;&lt;div&gt;&lt;b&gt;4)Total Amount&lt;/b&gt;&lt;/div&gt;" style="rounded=0;whiteSpace=wrap;html=1;align=left;" parent="1" vertex="1">
          <mxGeometry x="468.13" y="670" width="151.87" height="90" as="geometry" />
        </mxCell>
        <mxCell id="A1yUc622_VBz0XWEs9Df-5" value="&lt;b&gt;Write data in Excel report&lt;/b&gt;&lt;div&gt;&lt;b&gt;file in&amp;nbsp;&lt;/b&gt;&lt;b&gt;&#39;Invoice Details&#39;&lt;/b&gt;&lt;b&gt;&amp;nbsp;Sheet&lt;/b&gt;&lt;/div&gt;" style="rounded=0;whiteSpace=wrap;html=1;" parent="1" vertex="1">
          <mxGeometry x="158.75" y="810" width="171.25" height="60" as="geometry" />
        </mxCell>
        <mxCell id="A1yUc622_VBz0XWEs9Df-7" value="&lt;b&gt;Write data in Excel report&lt;/b&gt;&lt;div&gt;&lt;b&gt;file in &#39;PO Details&#39; Sheet&lt;/b&gt;&lt;/div&gt;" style="rounded=0;whiteSpace=wrap;html=1;" parent="1" vertex="1">
          <mxGeometry x="455.94" y="810" width="176.25" height="60" as="geometry" />
        </mxCell>
        <mxCell id="A1yUc622_VBz0XWEs9Df-14" value="" style="edgeStyle=orthogonalEdgeStyle;rounded=0;orthogonalLoop=1;jettySize=auto;html=1;" parent="1" source="A1yUc622_VBz0XWEs9Df-11" target="A1yUc622_VBz0XWEs9Df-12" edge="1">
          <mxGeometry relative="1" as="geometry" />
        </mxCell>
        <mxCell id="A1yUc622_VBz0XWEs9Df-11" value="&lt;b&gt;Sent Prepared Excel&amp;nbsp;&lt;/b&gt;&lt;b style=&quot;background-color: initial;&quot;&gt;Report&lt;/b&gt;&lt;div&gt;&lt;div&gt;&lt;b&gt;file on mail.&lt;/b&gt;&lt;/div&gt;&lt;/div&gt;" style="rounded=0;whiteSpace=wrap;html=1;" parent="1" vertex="1">
          <mxGeometry y="420" width="190" height="70" as="geometry" />
        </mxCell>
        <mxCell id="A1yUc622_VBz0XWEs9Df-12" value="&lt;b&gt;&lt;font style=&quot;font-size: 14px;&quot;&gt;End&lt;/font&gt;&lt;/b&gt;" style="ellipse;whiteSpace=wrap;html=1;" parent="1" vertex="1">
          <mxGeometry x="15" y="550" width="160" height="70" as="geometry" />
        </mxCell>
        <mxCell id="A1yUc622_VBz0XWEs9Df-30" style="edgeStyle=orthogonalEdgeStyle;rounded=0;orthogonalLoop=1;jettySize=auto;html=1;exitX=1;exitY=0.5;exitDx=0;exitDy=0;" parent="1" source="A1yUc622_VBz0XWEs9Df-22" target="A1yUc622_VBz0XWEs9Df-31" edge="1">
          <mxGeometry relative="1" as="geometry">
            <mxPoint x="700" y="470" as="targetPoint" />
            <mxPoint x="450.01" y="980" as="sourcePoint" />
          </mxGeometry>
        </mxCell>
        <mxCell id="A1yUc622_VBz0XWEs9Df-22" value="&lt;b&gt;Go for next Document&lt;/b&gt;" style="rounded=0;whiteSpace=wrap;html=1;" parent="1" vertex="1">
          <mxGeometry x="337.51" y="910" width="112.5" height="70" as="geometry" />
        </mxCell>
        <mxCell id="A1yUc622_VBz0XWEs9Df-28" style="edgeStyle=orthogonalEdgeStyle;rounded=0;orthogonalLoop=1;jettySize=auto;html=1;entryX=0.216;entryY=-0.007;entryDx=0;entryDy=0;entryPerimeter=0;exitX=1;exitY=0.5;exitDx=0;exitDy=0;" parent="1" source="A1yUc622_VBz0XWEs9Df-5" target="A1yUc622_VBz0XWEs9Df-22" edge="1">
          <mxGeometry relative="1" as="geometry" />
        </mxCell>
        <mxCell id="A1yUc622_VBz0XWEs9Df-29" style="edgeStyle=orthogonalEdgeStyle;rounded=0;orthogonalLoop=1;jettySize=auto;html=1;exitX=0;exitY=0.5;exitDx=0;exitDy=0;" parent="1" source="A1yUc622_VBz0XWEs9Df-7" edge="1">
          <mxGeometry relative="1" as="geometry">
            <mxPoint x="410" y="910" as="targetPoint" />
          </mxGeometry>
        </mxCell>
        <mxCell id="A1yUc622_VBz0XWEs9Df-32" style="edgeStyle=orthogonalEdgeStyle;rounded=0;orthogonalLoop=1;jettySize=auto;html=1;" parent="1" source="A1yUc622_VBz0XWEs9Df-31" target="C0UGEEo54DAQuoxf1vOR-1" edge="1">
          <mxGeometry relative="1" as="geometry" />
        </mxCell>
        <mxCell id="A1yUc622_VBz0XWEs9Df-31" value="" style="shape=waypoint;sketch=0;fillStyle=solid;size=6;pointerEvents=1;points=[];fillColor=none;resizable=0;rotatable=0;perimeter=centerPerimeter;snapToPoint=1;" parent="1" vertex="1">
          <mxGeometry x="690" y="445" width="20" height="20" as="geometry" />
        </mxCell>
        <mxCell id="A1yUc622_VBz0XWEs9Df-33" value="&lt;b&gt;False&lt;/b&gt;" style="text;html=1;align=center;verticalAlign=middle;whiteSpace=wrap;rounded=0;" parent="1" vertex="1">
          <mxGeometry x="390.01" y="530" width="60" height="30" as="geometry" />
        </mxCell>
        <mxCell id="A1yUc622_VBz0XWEs9Df-34" value="&lt;b&gt;True&lt;/b&gt;" style="text;html=1;align=center;verticalAlign=middle;whiteSpace=wrap;rounded=0;" parent="1" vertex="1">
          <mxGeometry x="277.51" y="430" width="60" height="30" as="geometry" />
        </mxCell>
        <mxCell id="A1yUc622_VBz0XWEs9Df-36" value="&lt;span style=&quot;font-size: 22px;&quot;&gt;&lt;b&gt;Fig.&amp;nbsp; &amp;nbsp;Manual Flow of Process&lt;/b&gt;&lt;/span&gt;" style="text;html=1;align=center;verticalAlign=middle;whiteSpace=wrap;rounded=0;" parent="1" vertex="1">
          <mxGeometry x="92.51" y="1030" width="610" height="30" as="geometry" />
        </mxCell>
      </root>
    </mxGraphModel>
  </diagram>
</mxfile>
